<?xml version="1.0" encoding="utf-8" standalone="no"?>
<!DOCTYPE svg PUBLIC "-//W3C//DTD SVG 1.1//EN"
  "http://www.w3.org/Graphics/SVG/1.1/DTD/svg11.dtd">
<svg xmlns:xlink="http://www.w3.org/1999/xlink" width="227.016194pt" height="190.286544pt" viewBox="0 0 227.016194 190.286544" xmlns="http://www.w3.org/2000/svg" version="1.1">
 <metadata>
  <rdf:RDF xmlns:dc="http://purl.org/dc/elements/1.1/" xmlns:cc="http://creativecommons.org/ns#" xmlns:rdf="http://www.w3.org/1999/02/22-rdf-syntax-ns#">
   <cc:Work>
    <dc:type rdf:resource="http://purl.org/dc/dcmitype/StillImage"/>
    <dc:date>2026-07-28T02:03:13.092534</dc:date>
    <dc:format>image/svg+xml</dc:format>
    <dc:creator>
     <cc:Agent>
      <dc:title>Matplotlib v3.7.1, https://matplotlib.org/</dc:title>
     </cc:Agent>
    </dc:creator>
   </cc:Work>
  </rdf:RDF>
 </metadata>
 <defs>
  <style type="text/css">*{stroke-linejoin: round; stroke-linecap: butt}</style>
 </defs>
 <g id="figure_1">
  <g id="patch_1">
   <path d="M 0 190.286544 
L 227.016194 190.286544 
L 227.016194 0 
L 0 0 
z
" style="fill: #ffffff"/>
  </g>
  <g id="axes_1">
   <g id="patch_2">
    <path d="M 93.514766 161.421544 
L 225.936194 161.421544 
L 225.936194 18.373212 
L 93.514766 18.373212 
z
" style="fill: #ffffff"/>
   </g>
   <g id="matplotlib.axis_1">
    <g id="xtick_1">
     <g id="line2d_1">
      <path d="M 93.514766 161.421544 
L 93.514766 18.373212 
" clip-path="url(#p686c3108ae)" style="fill: none; stroke-dasharray: 0.6,0.99; stroke-dashoffset: 0; stroke: #e5e7eb; stroke-opacity: 0.75; stroke-width: 0.6"/>
     </g>
     <g id="line2d_2">
      <defs>
       <path id="m02fb9b2b79" d="M 0 0 
L 0 4.8 
" style="stroke: #1f2937"/>
      </defs>
      <g>
       <use xlink:href="#m02fb9b2b79" x="93.514766" y="161.421544" style="fill: #1f2937; stroke: #1f2937"/>
      </g>
     </g>
     <g id="text_1">
      <text style="fill: #1f2937; font: 700 7.5px 'DejaVu Sans'; text-anchor: middle" x="93.514766" y="175.420372" transform="rotate(-0 93.514766 175.420372)">0</text>
     </g>
    </g>
    <g id="xtick_2">
     <g id="line2d_3">
      <path d="M 120.999971 161.421544 
L 120.999971 18.373212 
" clip-path="url(#p686c3108ae)" style="fill: none; stroke-dasharray: 0.6,0.99; stroke-dashoffset: 0; stroke: #e5e7eb; stroke-opacity: 0.75; stroke-width: 0.6"/>
     </g>
     <g id="line2d_4">
      <g>
       <use xlink:href="#m02fb9b2b79" x="120.999971" y="161.421544" style="fill: #1f2937; stroke: #1f2937"/>
      </g>
     </g>
     <g id="text_2">
      <text style="fill: #1f2937; font: 700 7.5px 'DejaVu Sans'; text-anchor: middle" x="120.999971" y="175.420372" transform="rotate(-0 120.999971 175.420372)">1000</text>
     </g>
    </g>
    <g id="xtick_3">
     <g id="line2d_5">
      <path d="M 148.485175 161.421544 
L 148.485175 18.373212 
" clip-path="url(#p686c3108ae)" style="fill: none; stroke-dasharray: 0.6,0.99; stroke-dashoffset: 0; stroke: #e5e7eb; stroke-opacity: 0.75; stroke-width: 0.6"/>
     </g>
     <g id="line2d_6">
      <g>
       <use xlink:href="#m02fb9b2b79" x="148.485175" y="161.421544" style="fill: #1f2937; stroke: #1f2937"/>
      </g>
     </g>
     <g id="text_3">
      <text style="fill: #1f2937; font: 700 7.5px 'DejaVu Sans'; text-anchor: middle" x="148.485175" y="175.420372" transform="rotate(-0 148.485175 175.420372)">2000</text>
     </g>
    </g>
    <g id="xtick_4">
     <g id="line2d_7">
      <path d="M 175.97038 161.421544 
L 175.97038 18.373212 
" clip-path="url(#p686c3108ae)" style="fill: none; stroke-dasharray: 0.6,0.99; stroke-dashoffset: 0; stroke: #e5e7eb; stroke-opacity: 0.75; stroke-width: 0.6"/>
     </g>
     <g id="line2d_8">
      <g>
       <use xlink:href="#m02fb9b2b79" x="175.97038" y="161.421544" style="fill: #1f2937; stroke: #1f2937"/>
      </g>
     </g>
     <g id="text_4">
      <text style="fill: #1f2937; font: 700 7.5px 'DejaVu Sans'; text-anchor: middle" x="175.97038" y="175.420372" transform="rotate(-0 175.97038 175.420372)">3000</text>
     </g>
    </g>
    <g id="xtick_5">
     <g id="line2d_9">
      <path d="M 203.455585 161.421544 
L 203.455585 18.373212 
" clip-path="url(#p686c3108ae)" style="fill: none; stroke-dasharray: 0.6,0.99; stroke-dashoffset: 0; stroke: #e5e7eb; stroke-opacity: 0.75; stroke-width: 0.6"/>
     </g>
     <g id="line2d_10">
      <g>
       <use xlink:href="#m02fb9b2b79" x="203.455585" y="161.421544" style="fill: #1f2937; stroke: #1f2937"/>
      </g>
     </g>
     <g id="text_5">
      <text style="fill: #1f2937; font: 700 7.5px 'DejaVu Sans'; text-anchor: middle" x="203.455585" y="175.420372" transform="rotate(-0 203.455585 175.420372)">4000</text>
     </g>
    </g>
    <g id="text_6">
     <text style="fill: #1f2937; font: 700 8.5px 'DejaVu Sans'; text-anchor: middle" x="159.72548" y="187.438809" transform="rotate(-0 159.72548 187.438809)">Predicted volume (mm³) ↓</text>
    </g>
   </g>
   <g id="matplotlib.axis_2">
    <g id="ytick_1">
     <g id="line2d_11">
      <defs>
       <path id="m8856794c70" d="M 0 0 
L -4.8 0 
" style="stroke: #1f2937"/>
      </defs>
      <g>
       <use xlink:href="#m8856794c70" x="93.514766" y="147.952707" style="fill: #1f2937; stroke: #1f2937"/>
      </g>
     </g>
     <g id="text_7">
      <text style="fill: #1f2937; font: 700 7.5px 'DejaVu Sans'; text-anchor: end" x="85.214766" y="150.802121" transform="rotate(-0 85.214766 150.802121)">nnInteractive</text>
     </g>
    </g>
    <g id="ytick_2">
     <g id="line2d_12">
      <g>
       <use xlink:href="#m8856794c70" x="93.514766" y="128.600931" style="fill: #1f2937; stroke: #1f2937"/>
      </g>
     </g>
     <g id="text_8">
      <text style="fill: #1f2937; font: 700 7.5px 'DejaVu Sans'; text-anchor: end" x="85.214766" y="131.450345" transform="rotate(-0 85.214766 131.450345)">SAM-Med3D</text>
     </g>
    </g>
    <g id="ytick_3">
     <g id="line2d_13">
      <g>
       <use xlink:href="#m8856794c70" x="93.514766" y="109.249155" style="fill: #1f2937; stroke: #1f2937"/>
      </g>
     </g>
     <g id="text_9">
      <text style="fill: #1f2937; font: 700 7.5px 'DejaVu Sans'; text-anchor: end" x="85.214766" y="112.098569" transform="rotate(-0 85.214766 112.098569)">SAM-Med2D</text>
     </g>
    </g>
    <g id="ytick_4">
     <g id="line2d_14">
      <g>
       <use xlink:href="#m8856794c70" x="93.514766" y="89.897378" style="fill: #1f2937; stroke: #1f2937"/>
      </g>
     </g>
     <g id="text_10">
      <text style="fill: #1f2937; font: 700 7.5px 'DejaVu Sans'; text-anchor: end" x="85.214766" y="92.746792" transform="rotate(-0 85.214766 92.746792)">SegVol</text>
     </g>
    </g>
    <g id="ytick_5">
     <g id="line2d_15">
      <g>
       <use xlink:href="#m8856794c70" x="93.514766" y="70.545602" style="fill: #1f2937; stroke: #1f2937"/>
      </g>
     </g>
     <g id="text_11">
      <text style="fill: #1f2937; font: 700 7.5px 'DejaVu Sans'; text-anchor: end" x="85.214766" y="73.395016" transform="rotate(-0 85.214766 73.395016)">Ours (40-step, R=2)</text>
     </g>
    </g>
    <g id="ytick_6">
     <g id="line2d_16">
      <g>
       <use xlink:href="#m8856794c70" x="93.514766" y="51.193825" style="fill: #1f2937; stroke: #1f2937"/>
      </g>
     </g>
     <g id="text_12">
      <text style="fill: #1f2937; font: 700 7.5px 'DejaVu Sans'; text-anchor: end" x="85.214766" y="54.043239" transform="rotate(-0 85.214766 54.043239)">Ours (60-step, R=3)</text>
     </g>
    </g>
    <g id="ytick_7">
     <g id="line2d_17">
      <g>
       <use xlink:href="#m8856794c70" x="93.514766" y="31.842049" style="fill: #1f2937; stroke: #1f2937"/>
      </g>
     </g>
     <g id="text_13">
      <text style="fill: #1f2937; font: 700 7.5px 'DejaVu Sans'; text-anchor: end" x="85.214766" y="34.691463" transform="rotate(-0 85.214766 34.691463)">VISTA3D (silent)</text>
     </g>
    </g>
   </g>
   <g id="patch_3">
    <path d="M 93.514766 161.421544 
L 93.514766 18.373212 
" style="fill: none; stroke: #1f2937; stroke-width: 0.8; stroke-linejoin: miter; stroke-linecap: square"/>
   </g>
   <g id="patch_4">
    <path d="M 93.514766 161.421544 
L 225.936194 161.421544 
" style="fill: none; stroke: #1f2937; stroke-width: 0.8; stroke-linejoin: miter; stroke-linecap: square"/>
   </g>
   <g id="patch_5">
    <path d="M 93.514766 154.919347 
L 203.865956 154.919347 
L 203.865956 140.986068 
L 93.514766 140.986068 
z
" clip-path="url(#p686c3108ae)" style="fill: #6b7280; stroke: #111827; stroke-width: 0.45; stroke-linejoin: miter"/>
   </g>
   <g id="patch_6">
    <path d="M 93.514766 135.56757 
L 172.459751 135.56757 
L 172.459751 121.634291 
L 93.514766 121.634291 
z
" clip-path="url(#p686c3108ae)" style="fill: #78716c; stroke: #111827; stroke-width: 0.45; stroke-linejoin: miter"/>
   </g>
   <g id="patch_7">
    <path d="M 93.514766 116.215794 
L 147.94732 116.215794 
L 147.94732 102.282515 
L 93.514766 102.282515 
z
" clip-path="url(#p686c3108ae)" style="fill: #4b5563; stroke: #111827; stroke-width: 0.45; stroke-linejoin: miter"/>
   </g>
   <g id="patch_8">
    <path d="M 93.514766 96.864018 
L 131.869898 96.864018 
L 131.869898 82.930739 
L 93.514766 82.930739 
z
" clip-path="url(#p686c3108ae)" style="fill: #c2410c; stroke: #111827; stroke-width: 0.45; stroke-linejoin: miter"/>
   </g>
   <g id="patch_9">
    <path d="M 93.514766 77.512241 
L 123.079676 77.512241 
L 123.079676 63.578962 
L 93.514766 63.578962 
z
" clip-path="url(#p686c3108ae)" style="fill: url(#h2bcd5e563c); opacity: 0.95; stroke: #111827; stroke-width: 0.45; stroke-linejoin: miter"/>
   </g>
   <g id="patch_10">
    <path d="M 93.514766 58.160465 
L 121.157781 58.160465 
L 121.157781 44.227186 
L 93.514766 44.227186 
z
" clip-path="url(#p686c3108ae)" style="fill: url(#h2bcd5e563c); opacity: 0.95; stroke: #111827; stroke-width: 0.45; stroke-linejoin: miter"/>
   </g>
   <g id="patch_11">
    <path d="M 93.514766 38.808688 
L 93.514766 38.808688 
L 93.514766 24.875409 
L 93.514766 24.875409 
z
" clip-path="url(#p686c3108ae)" style="fill: #9a3412; stroke: #111827; stroke-width: 0.45; stroke-linejoin: miter"/>
   </g>
   <g id="text_14">
    <text style="fill: #1f2937; font: 700 7.2px 'DejaVu Sans'; text-anchor: start" x="205.455013" y="149.939457" transform="rotate(-0 205.455013 149.939457)">4015</text>
   </g>
   <g id="text_15">
    <text style="fill: #1f2937; font: 700 7.2px 'DejaVu Sans'; text-anchor: start" x="174.048809" y="130.587681" transform="rotate(-0 174.048809 130.587681)">2872</text>
   </g>
   <g id="text_16">
    <text style="fill: #1f2937; font: 700 7.2px 'DejaVu Sans'; text-anchor: start" x="149.536377" y="111.235905" transform="rotate(-0 149.536377 111.235905)">1980</text>
   </g>
   <g id="text_17">
    <text style="fill: #1f2937; font: 700 7.2px 'DejaVu Sans'; text-anchor: start" x="133.458955" y="91.884128" transform="rotate(-0 133.458955 91.884128)">1395</text>
   </g>
   <g id="text_18">
    <text style="fill: #1f2937; font: 700 7.2px 'DejaVu Sans'; text-anchor: start" x="124.668733" y="72.532352" transform="rotate(-0 124.668733 72.532352)">1076</text>
   </g>
   <g id="text_19">
    <text style="fill: #1f2937; font: 700 7.2px 'DejaVu Sans'; text-anchor: start" x="122.746838" y="53.180575" transform="rotate(-0 122.746838 53.180575)">1006</text>
   </g>
   <g id="text_20">
    <text style="fill: #1f2937; font: 700 7.2px 'DejaVu Sans'; text-anchor: start" x="95.103823" y="33.828799" transform="rotate(-0 95.103823 33.828799)">0</text>
   </g>
   <g id="text_21">
    <text style="fill: #1f2937; font: 700 9px 'DejaVu Sans'; text-anchor: start" x="77.624194" y="7.918594" transform="rotate(-0 77.624194 7.918594)">(a)</text>
   </g>
   <g id="text_22">
    <text style="fill: #262626; font: 700 9px 'DejaVu Sans'; text-anchor: start" x="93.514766" y="10.373212" transform="rotate(-0 93.514766 10.373212)">Healthy FP probe</text>
   </g>
  </g>
 </g>
 <defs>
  <clipPath id="p686c3108ae">
   <rect x="93.514766" y="18.373212" width="132.421429" height="143.048331"/>
  </clipPath>
 </defs>
 <defs>
  <pattern id="h2bcd5e563c" patternUnits="userSpaceOnUse" x="0" y="0" width="72" height="72">
   <rect x="0" y="0" width="73" height="73" fill="#0b3d5c"/>
   <path d="M -36 36 
L 36 -36 
M -32 40 
L 40 -32 
M -28 44 
L 44 -28 
M -24 48 
L 48 -24 
M -20 52 
L 52 -20 
M -16 56 
L 56 -16 
M -12 60 
L 60 -12 
M -8 64 
L 64 -8 
M -4 68 
L 68 -4 
M 0 72 
L 72 0 
M 4 76 
L 76 4 
M 8 80 
L 80 8 
M 12 84 
L 84 12 
M 16 88 
L 88 16 
M 20 92 
L 92 20 
M 24 96 
L 96 24 
M 28 100 
L 100 28 
M 32 104 
L 104 32 
M 36 108 
L 108 36 
" style="fill: #111827; stroke: #111827; stroke-width: 1.0; stroke-linecap: butt; stroke-linejoin: miter; stroke-opacity: 0.95"/>
  </pattern>
 </defs>
</svg>
